<?xml version="1.0" encoding="utf-8"?>
<!-- Generator: Adobe Illustrator 14.0.0, SVG Export Plug-In . SVG Version: 6.00 Build 43363)  -->
<!DOCTYPE svg PUBLIC "-//W3C//DTD SVG 1.1//EN" "http://www.w3.org/Graphics/SVG/1.1/DTD/svg11.dtd">
<svg version="1.1" id="Layer_1" xmlns="http://www.w3.org/2000/svg" xmlns:xlink="http://www.w3.org/1999/xlink" x="0px" y="0px"
	 width="828px" height="828px" viewBox="0 0 828 828" enable-background="new 0 0 828 828" xml:space="preserve">
<path fill="#4C1348" d="M508.763,414c8.943-5.012,13.259-14.556,13.271-24.283c0.004-3.467-0.538-6.958-1.612-10.275l-0.013-0.037
	c-4.232-12.506-15.943-22.748-29.76-21.084c5.17-11.239,0.94-24.273-7.89-32.309c-9.563-8.708-24.044-12.028-35.552-5.049
	c-1.396,0.849-2.689,1.837-3.887,2.945c-2.714-13.617-16.065-21.66-29.258-21.789h-0.059c-13.192,0.129-26.542,8.173-29.257,21.789
	c-10.223-9.436-25.754-8.229-36.457-0.333l0.005-0.003c-10.672,7.807-16.681,22.129-10.875,34.75
	c-13.817-1.665-25.53,8.579-29.761,21.084l-0.013,0.037c-1.022,3.155-1.563,6.468-1.609,9.768
	c-0.14,9.901,4.169,19.691,13.266,24.79c-9.097,5.098-13.405,14.887-13.266,24.788c0.046,3.301,0.587,6.613,1.609,9.769l0.013,0.04
	c4.23,12.505,15.943,22.746,29.761,21.084c-5.807,12.618,0.203,26.939,10.875,34.747l-0.005-0.003
	c10.706,7.896,26.229,9.098,36.457-0.332c2.716,13.614,16.065,21.657,29.257,21.789h0.059c13.192-0.132,26.544-8.175,29.258-21.79
	c10.224,9.435,25.753,8.229,36.457,0.333l-0.005,0.003c10.669-7.808,16.681-22.128,10.876-34.747
	c13.817,1.664,25.527-8.58,29.76-21.084l0.013-0.04c1.088-3.361,1.63-6.901,1.611-10.414
	C521.98,428.463,517.665,418.984,508.763,414"/>
</svg>
